<?xml version="1.0" encoding="utf-8"?>
<!-- Generator: Adobe Illustrator 16.0.0, SVG Export Plug-In . SVG Version: 6.00 Build 0)  -->
<!DOCTYPE svg PUBLIC "-//W3C//DTD SVG 1.1//EN" "http://www.w3.org/Graphics/SVG/1.1/DTD/svg11.dtd">
<svg version="1.1" id="Layer_1" xmlns="http://www.w3.org/2000/svg" xmlns:xlink="http://www.w3.org/1999/xlink" x="0px" y="0px"
	 width="1123.753px" height="345.101px" viewBox="0 0 1123.753 345.101" enable-background="new 0 0 1123.753 345.101"
	 xml:space="preserve">
<g>
	<path fill-rule="evenodd" clip-rule="evenodd" fill="#F44E21" d="M1101.185,142.512c-0.462,9.682-1.142,19.289-1.281,28.903
		c-0.065,4.473,0.776,8.985,1.523,13.426c0.179,1.062,1.683,1.864,2.471,2.869c1.684,2.148,3.188,4.447,4.984,6.491
		c0.958,1.089,2.254,2.188,3.601,2.576c10.226,2.945,11.311,4.071,11.27,14.499c-0.022,5.445-0.569,10.895-1.053,16.328
		c-0.128,1.434-0.7,2.922-1.41,4.194c-2.146,3.849-5.077,7.376-6.584,11.442c-3.428,9.257-10.396,15.549-16.973,22.302
		c-3.895,3.999-7.262,8.509-11.094,12.575c-0.948,1.008-2.772,1.643-4.207,1.665c-9.33,0.147-18.684,0.47-27.99-0.013
		c-13.386-0.695-26.16,2.92-39.199,4.666c-13.716,1.838-27.438,3.621-41.156,5.438c-1.6,0.213-3.191,0.48-4.787,0.723
		c-4.817-6.898-4.817-6.898-14.325-6.598c-3.436,8.293-6.206,16.768-10.315,24.532c-8.843,16.713-22.567,28.361-39.971,35.646
		c-1.454,0.608-3.218,0.653-4.839,0.659c-14.997,0.047-30.021-0.496-44.983,0.224c-9.094,0.437-16.462-2.804-23.616-7.351
		c-16.693-10.612-27.939-25.537-34.14-44.219c-11.949,1.212-13.263,2.197-13.272,10.373c-7.613,0-15.237,0.005-22.862-0.002
		c-10.498-0.01-21.019,0.399-31.49-0.137c-18.996-0.974-37.959-2.565-56.941-3.795c-12.063-0.782-24.132-1.676-36.211-1.998
		c-31.557-0.843-63.118-1.586-94.683-1.981c-13.778-0.173-27.599,0.154-41.347,1.06c-17.942,1.183-35.822,3.273-53.746,4.762
		c-10.882,0.904-21.789,1.672-32.7,2.038c-24.874,0.837-49.754,1.577-74.638,1.995c-18.584,0.312-37.178,0.062-56.151,0.062
		c0.499-7.402-3.6-11.539-11.31-13.363c-3.568-0.844-4.181,0.34-5.172,3.09c-7.989,22.148-22.851,38.045-44.22,47.823
		c-2.025,0.927-4.445,1.373-6.685,1.388c-17.331,0.113-34.679,0.488-51.982-0.202c-4.892-0.195-9.977-3.104-14.419-5.712
		c-18.02-10.578-30.01-26.096-36.501-45.953c-0.5-1.529-2.68-4.008-3.107-3.822c-3.045,1.33-8.485-0.336-8.667,4.711
		c-0.178,4.922-2.501,5.21-6.292,5.15c-11.385-0.18-22.776-0.011-34.162-0.185c-10.622-0.162-21.242-0.526-31.859-0.923
		c-6.702-0.25-10.284-3.17-11.918-9.715c-2.625-10.516-5.106-21.068-7.692-31.789c-6.28-1.281-6.282-1.309-7.289-12.365
		c-0.314-3.449-0.578-6.914-1.116-10.332c-1.644-10.445-0.929-11.414,9.52-11.98c0.866-7.779,1.129-15.718,2.77-23.36
		c1.741-8.106,3.295-16.929,7.725-23.578c3.792-5.693,10.976-10.308,17.63-12.694c20.707-7.424,41.628-14.538,62.93-19.944
		c25.099-6.37,50.621-11.161,76.081-15.996c15.988-3.037,32.185-4.995,48.314-7.257c17.286-2.424,34.577-4.841,51.914-6.854
		c8.82-1.024,17.73-2.339,26.562,0.71c5.428,1.875,9.469-1.976,13.658-4.398c26.59-15.378,52.892-31.269,79.719-46.22
		c27.403-15.272,55.032-30.2,83.127-44.139c9.66-4.792,20.864-7.23,31.646-8.836c19.211-2.861,38.61-4.615,57.983-6.173
		c15.188-1.222,30.452-1.84,45.692-2.043c39.94-0.532,79.89-1.163,119.827-0.8c20.313,0.185,40.612,2.371,60.91,3.756
		c16.431,1.122,32.773,3.416,48.225,9.11c25.706,9.475,51.42,19.068,76.517,30.017c29.656,12.938,58.618,27.459,88.006,41.022
		c3.282,1.515,7.366,1.41,11.104,1.795c13.614,1.404,27.271,2.447,40.853,4.102c14.218,1.731,28.382,3.92,42.541,6.1
		c4.802,0.739,5.748,2.875,4.547,8.278c-1.605,7.223-3.364,14.423-4.601,21.71c-0.426,2.513,0.121,5.387,0.918,7.873
		C1106.674,139.738,1106.536,140.405,1101.185,142.512z M343.575,218.903c14.802,0,28.578,0.13,42.35-0.035
		c14.796-0.178,29.588-0.63,44.382-0.968c14.455-0.33,28.91-0.669,43.366-0.997c14.774-0.335,29.55-0.673,44.325-0.988
		c16.287-0.349,32.573-0.72,48.861-0.993c13.889-0.232,27.779-0.34,41.341-0.498c2.401-21.865,4.675-42.562,7.014-63.858
		c-7.534,0.428-14.959,0.792-22.37,1.349c-0.882,0.066-2.027,1.019-2.462,1.863c-1.671,3.239-4.246,4.306-7.749,4.132
		c-3.657-0.181-7.333-0.13-10.996-0.014c-3.884,0.124-7.572,0.342-9.872-3.928c-0.486-0.901-2.937-1.096-4.458-1.034
		c-13.74,0.559-27.473,1.312-41.213,1.882c-17.56,0.729-35.124,1.317-52.685,2.014c-15.893,0.63-31.782,1.36-47.675,1.981
		c-18.553,0.726-37.11,1.358-55.664,2.084c-5.256,0.206-10.505,0.598-16.496,0.947C343.575,181.298,343.575,200.305,343.575,218.903
		z M416.118,125.346c0.004,0.516,0.008,1.031,0.012,1.546c7.182,0,14.37,0.188,21.544-0.037c18.068-0.564,36.131-1.308,54.195-1.991
		c17.222-0.651,34.442-1.341,51.665-1.967c19.224-0.699,38.446-1.448,57.676-1.92c3.39-0.083,4.781-0.954,5.718-4.344
		c6.489-23.493,13.189-46.928,19.959-70.343c2.506-8.665,5.38-17.222,8.408-26.854c-9.391,0.491-17.965,0.845-26.526,1.406
		c-19.633,1.286-39.278,2.456-58.884,4.088c-15.006,1.25-29.834,4.236-42.881,11.989c-23.568,14.006-46.713,28.728-69.975,43.249
		c-5.442,3.397-10.641,7.184-15.952,10.792c2.363,0.867,4.204,1.006,6.018,0.839c4.513-0.414,6.827,1.162,6.842,6.081
		c0.02,6.291,0.571,12.58,0.855,18.871c0.157,3.484-1.405,5.569-4.971,6.147C425.241,123.641,420.685,124.523,416.118,125.346z
		 M612.758,212.896c12.698,0,24.465,0.126,36.227-0.033c14.279-0.191,28.556-0.63,42.833-0.953
		c15.108-0.342,30.217-0.679,45.326-1.01c15.773-0.346,31.551-0.593,47.317-1.152c1.674-0.061,3.634-1.617,4.863-3.008
		c6.424-7.263,11.872-15.617,19.169-21.814c7.543-6.408,16.619-11.137,25.383-15.946c10.773-5.913,17.198-15.268,22.709-25.103
		c-11.075,0-21.847-0.039-32.616,0.07c-0.918,0.009-2.35,0.803-2.65,1.579c-1.591,4.099-4.83,4.47-8.524,4.373
		c-4.495-0.119-9.015,0.213-13.484-0.149c-1.893-0.153-3.681-1.58-5.52-2.422c-1.764-0.808-3.554-2.349-5.294-2.295
		c-14.065,0.429-28.118,1.248-42.181,1.775c-20.227,0.759-40.459,1.38-60.688,2.046c-20.227,0.666-40.45,1.464-60.683,1.851
		c-4.315,0.083-5.707,1.625-6.204,5.583c-1.479,11.759-3.466,23.457-4.81,35.229C613.11,198.703,613.11,205.982,612.758,212.896z
		 M644.5,119.72c12.674-0.639,24.513-1.37,36.362-1.803c21.044-0.77,42.093-1.469,63.145-1.979
		c10.741-0.26,21.494-0.045,32.247-0.045c1.996-12.386,3.791-23.385,5.537-34.392c2.425-15.284,4.412-30.653,7.434-45.818
		c1.071-5.375-0.295-7.192-4.95-8.953c-14.001-5.296-28.72-5.964-43.307-6.67c-20.064-0.971-40.183-0.862-60.278-1.161
		c-6.46-0.096-12.922-0.015-20.026-0.015C655.27,52.534,649.938,85.798,644.5,119.72z M782.891,269.883
		c-2.088,0-4.409-0.023-6.73,0.004c-24.785,0.306-49.57,0.693-74.356,0.914c-43.948,0.391-87.898,0.688-131.849,1.016
		c-45.286,0.34-90.571,0.729-135.858,0.982c-25.497,0.143-50.995,0.054-76.492,0.068c-2.791,0.002-5.581,0.001-9.292,0.001
		c1.628,10.632,3.158,20.62,4.755,31.042c1.92,0,3.553,0.049,5.182-0.007c19.56-0.665,39.123-1.237,58.675-2.064
		c10.252-0.435,20.494-1.212,30.725-2.028c19.593-1.564,39.147-3.828,58.768-4.762c21.083-1.002,42.227-1.211,63.338-1.031
		c24.079,0.205,48.156,1.109,72.227,1.943c9.405,0.326,18.788,1.297,28.183,1.96c18.634,1.316,37.254,2.953,55.909,3.821
		c12.972,0.604,25.993,0.15,38.991,0.164c5.771,0.007,11.543,0.002,17.826,0.002C782.891,290.953,782.891,280.682,782.891,269.883z
		 M793.848,14.69c-0.288,0.828-0.575,1.656-0.863,2.484c3.277,2.092,6.482,4.308,9.843,6.257
		c23.736,13.765,47.236,27.921,68.711,45.084c13.657,10.915,18.161,23.304,8.093,40.042c-0.723,1.2-1.262,2.511-2.16,4.324
		c2.345,0,3.979,0.031,5.611-0.005c14.621-0.317,29.241-0.664,43.862-0.968c16.942-0.353,33.886-0.989,50.828-0.936
		c33.438,0.105,66.876,0.598,100.314,0.955c0.476,0.005,0.948,0.32,1.423,0.491c-1.311,1.129-2.527,1.452-3.72,1.377
		c-3.624-0.228-7.239-0.907-10.855-0.883c-36.279,0.243-72.559,0.537-108.837,0.933c-20.439,0.223-40.877,0.677-61.316,0.999
		c-4.998,0.079-9.999-0.024-14.994,0.122c-1.196,0.035-3.001,0.375-3.461,1.182c-4.344,7.615-8.456,15.362-12.915,23.587
		c2.372-0.376,3.799-0.761,5.236-0.805c12.44-0.378,24.883-0.695,37.325-1.029c12.617-0.339,25.235-0.695,37.854-1.009
		c13.953-0.348,27.906-0.667,41.86-0.982c15.45-0.349,30.9-0.864,46.353-0.962c15.289-0.098,30.643,0.862,45.443-5.122
		c2.063-9.729,5.693-19.337,14.187-26.846c-12.336-1.396-24.247-2.981-36.206-4.027c-11.534-1.008-23.118-1.45-34.68-2.155
		c-15.842-0.966-31.705-1.69-47.514-3.049c-6.105-0.525-12.407-1.716-18.042-4.018c-7.12-2.908-13.537-7.488-20.456-10.951
		c-36.786-18.414-73.479-37.03-110.569-54.812C814.77,19.444,804.002,17.707,793.848,14.69z M608.878,267.864
		c0-14.286,0-27.995,0-42.453c-9.627,0.509-18.371,1.116-27.126,1.399c-14.113,0.457-28.234,0.715-42.353,1.029
		c-15.446,0.346-30.895,0.646-46.341,0.991c-14.114,0.314-28.227,0.681-42.341,0.987c-16.617,0.361-33.236,0.689-49.854,1.018
		c-17.95,0.355-35.901,0.692-53.851,1.059c-0.621,0.013-1.237,0.252-1.928,0.4c-0.102,0.825-0.297,1.477-0.241,2.105
		c0.99,11.023,1.916,22.056,3.191,33.047c0.109,0.943,2.59,2.312,3.955,2.296c8.116-0.099,16.225-0.769,24.34-0.841
		c44.445-0.399,88.891-0.72,133.337-0.986c19.498-0.116,38.997-0.043,58.495-0.051C581.807,267.859,595.452,267.864,608.878,267.864
		z M774.785,266.535c0.44,0.102,0.88,0.202,1.32,0.303c0.231-0.818,0.505-1.627,0.69-2.457c2.682-12.02,4.227-24.437,8.261-35.984
		c8.176-23.4,22.379-42.053,46.714-50.943c21.214-7.751,43.111-9.391,65.388-6.615c21.564,2.688,41.421,9.786,58.181,24.038
		c4.792,4.075,9.737,4.97,15.526,3.288c1.09-0.316,2.31-0.209,3.471-0.252c18.068-0.672,36.135-1.389,54.206-1.986
		c13.278-0.438,26.562-0.719,39.845-1.071c12.271-0.326,24.542-0.649,36.812-1.014c0.382-0.011,0.749-0.46,1.922-1.229
		c-2.766-2.089-5.106-5.313-7.58-5.42c-5.204-0.224-6.104-2.851-5.81-7.33c-9.952,0-19.605-0.296-29.231,0.081
		c-10.219,0.4-13.518-4.017-11.047-14.326c2.201-9.186,4.266-18.405,6.515-28.146c-7.34,0.454-14.764,1.088-22.2,1.334
		c-14.109,0.468-28.227,0.729-42.341,1.047c-15.449,0.349-30.899,0.649-46.349,1.003c-12.94,0.297-25.879,0.649-38.819,0.963
		c-15.112,0.366-30.225,0.805-45.341,0.993c-2.691,0.034-3.983,0.845-5.269,3.194c-7.249,13.242-17.104,23.649-31.354,29.774
		c-10.128,4.353-18.616,11.261-26.018,19.539c-11.849,13.251-18.93,28.884-23.046,45.908
		C777.223,249.536,776.235,258.092,774.785,266.535z M781.202,221.502c-8.045,0.451-15.929,1.047-23.822,1.301
		c-13.926,0.449-27.857,0.766-41.788,1.004c-23.924,0.408-47.852,0.635-71.774,1.098c-10.231,0.198-20.456,0.799-30.691,1.217
		c0,14.01,0,27.703,0,42.104c8.737-0.457,16.981-1.225,25.229-1.262c34.298-0.153,68.598-0.042,102.896-0.127
		c10.05-0.025,20.098-0.378,29.812-0.574c1.349-8.22,2.204-15.578,3.834-22.762C776.527,236.309,778.933,229.293,781.202,221.502z
		 M874.021,342.859c39.566,1.486,74.203-32.792,74.013-73.74c-0.181-38.981-32.459-74.081-74.981-73.43
		c-39.804,0.61-72.091,33.805-72.514,73.012C800.1,309.34,834.464,344.191,874.021,342.859z M116.687,269.15
		c-0.938,39.499,30.388,70.848,66.076,73.634c49.824,3.892,78.986-34.102,81.015-68.358c2.671-45.104-32.948-77.426-71.013-78.756
		C150.064,194.176,115.478,229.82,116.687,269.15z M622.534,123.37c-18.315,0.827-36.185,1.721-54.062,2.419
		c-20.05,0.783-40.105,1.438-60.161,2.054c-14.104,0.433-28.212,0.702-42.317,1.057c-0.824,0.021-1.645,0.195-2.469,0.233
		c-12.243,0.568-24.484,1.5-36.73,1.554c-8.226,0.037-16.471-1.036-24.682-1.864c-6.869-0.692-13.737-1.541-20.541-2.7
		c-6.871-1.171-13.647-2.887-20.494-4.211c-3.814-0.737-6.848,0.396-8.274,4.388c-1.33,3.722-2.982,7.358-3.968,11.168
		c-1.698,6.565-2.99,13.236-4.676,20.877c8.533-0.532,15.772-1.091,23.021-1.415c16.552-0.741,33.11-1.355,49.665-2.042
		c15.566-0.646,31.129-1.406,46.699-1.959c21.552-0.766,43.111-1.339,64.664-2.092c7.264-0.254,14.518-0.804,22-1.231
		c1.199-4.962,2.613-9.659,9.093-9.783c10.273-0.196,20.541-0.728,30.814-0.927c9.551-0.185,9.728,0.04,13.418,8.703
		c4.326,0,8.615,0,12.952,0C618.455,139.709,620.366,132.057,622.534,123.37z M61.969,176.168c0.215,0.467,0.43,0.934,0.645,1.4
		c4.724,0.298,9.5,1.188,14.164,0.783c14.442-1.251,28.841-2.99,43.256-4.551c5.065-0.548,10.267-0.569,15.164-1.799
		c12.846-3.228,25.457-7.428,38.354-10.408c11.851-2.738,23.94-1.969,35.962-0.245c9.841,1.411,19.29,4.333,29.739,2.831
		c15.009-2.157,30.302-2.451,45.49-3.222c17.372-0.881,34.759-1.529,52.146-2.004c3.567-0.097,4.619-1.67,4.897-4.679
		c1.037-11.217,3.726-21.974,9.659-33.107c-3.018,0.253-5.345,0.204-7.56,0.679c-7.355,1.576-14.598,3.837-22.017,4.919
		c-12.228,1.783-24.573,2.748-36.846,4.245c-15.158,1.85-30.295,3.875-45.438,5.854c-12.914,1.687-25.885,3.039-38.718,5.208
		c-21.712,3.669-43.486,7.199-64.953,12.032c-21.234,4.781-42.152,10.992-63.133,16.851
		C68.987,172.013,65.563,174.396,61.969,176.168z M971.388,288.479c0.678-0.104,2.294-0.376,3.915-0.603
		c13.813-1.93,27.606-4.03,41.448-5.725c13.392-1.639,26.813-3.149,40.265-4.15c8.113-0.604,16.31-0.018,24.461-0.23
		c1.489-0.039,3.222-1.051,4.358-2.125c2.493-2.357,4.465-5.283,7.025-7.551c9.996-8.855,18.961-18.369,22.34-32.879
		c-10.655,0.885-21.111,1.916-31.592,2.589c-17.808,1.142-35.62,2.286-53.448,3.001c-16.42,0.658-32.866,0.66-49.295,1.141
		c-6.002,0.175-11.987,0.891-16.918,1.277C966.44,258.387,968.884,273.248,971.388,288.479z M620.516,146.858
		c2.508,0,4.158,0.051,5.806-0.008c17.896-0.639,35.792-1.325,53.689-1.939c20.379-0.7,40.756-1.493,61.141-1.951
		c13.082-0.294,26.176-0.055,38.906-0.055c2.119-8.238,4.213-10.841,8.646-11.003c11.771-0.431,23.551-0.687,35.324-1.063
		c4.196-0.134,6.672,1.886,8.489,5.578c0.737,1.498,2.792,3.212,4.333,3.299c6.475,0.363,12.984,0.241,19.475,0.063
		c1.276-0.035,3.117-0.758,3.691-1.748c4.107-7.074,7.953-14.298,11.728-21.192c-12.542,0-24.761-0.221-36.969,0.047
		c-22.552,0.497-45.098,1.244-67.644,1.953c-19.721,0.62-39.437,1.37-59.157,1.988c-13.276,0.416-26.558,0.697-39.836,1.045
		c-12.778,0.335-25.56,0.602-38.329,1.137c-1.346,0.057-3.441,1.473-3.798,2.672C624.009,132.411,622.433,139.268,620.516,146.858z
		 M781.27,115.29c6.782-0.516,12.508-1.15,18.249-1.348c13.777-0.474,27.58-1.316,41.337-0.89
		c8.817,0.273,13.936-3.246,18.205-10.478c8.042-13.625,7.252-16.529-3.373-25.139c-14.514-11.76-29.924-22.426-45.129-33.31
		c-5.024-3.596-10.604-6.416-16.336-9.833C789.867,61.528,785.648,87.907,781.27,115.29z M339.834,161.621
		c-11.047,0.72-22.4,1.607-33.77,2.167c-16.872,0.831-33.757,1.393-50.633,2.144c-6.872,0.306-13.734,0.807-21.049,1.246
		c5.854,3.006,11.614,5.375,16.746,8.708c15.2,9.871,25.532,23.937,32.379,40.459c1.984,4.788,4.499,6.012,9.169,5.574
		c6.424-0.6,12.889-0.871,19.343-1.013c7.657-0.168,15.32-0.004,22.98-0.079c2.55-0.023,4.914-0.172,4.888-3.947
		C339.767,198.771,339.834,180.66,339.834,161.621z M1122.26,217.396c-11.374,0.521-21.614,1.078-31.86,1.438
		c-11.931,0.42-23.868,0.654-35.802,0.992c-11.278,0.32-22.556,0.734-33.836,0.992c-17.938,0.41-35.889,0.492-53.816,1.184
		c-8.141,0.314-15.482,0.028-19.857-8.277c-0.666-1.266-1.912-2.411-3.166-3.133c-1.622-0.934-3.521-1.386-5.302-2.045
		c10.323,9.182,17.432,20.143,23.079,32.789c18.748-0.815,37.461-1.611,56.171-2.45c14.057-0.63,28.108-1.372,42.167-1.964
		c17.543-0.74,35.086-1.557,52.638-1.936c4.428-0.096,6.505-2.311,7.556-5.74C1121.271,225.85,1121.48,222.199,1122.26,217.396z
		 M494.677,27.503c-4.838-2.068-8.877-4.194-13.17-5.457c-2.042-0.601-4.92-0.204-6.821,0.835
		C430.21,47.194,385.813,71.65,341.42,96.114c-2.371,1.307-4.575,2.919-7.792,4.992c7.558,2.126,13.883,4.366,20.4,5.563
		c3.821,0.702,8.378,0.773,11.849-0.679c7.41-3.1,14.579-6.975,21.402-11.244c22.144-13.856,44.026-28.13,66.131-42.05
		C466.754,44.292,480.323,36.248,494.677,27.503z M489.148,15.632c-0.004,0.406-0.009,0.813-0.014,1.22
		c1.593,0.65,3.354,1.051,4.752,1.992c7.479,5.033,14.773,3.855,22.99,1.171c23.054-7.531,47.229-8.38,71.181-10.062
		c15.69-1.102,31.437-1.933,47.158-1.949c34.097-0.034,68.199,0.277,102.289,0.969c15.505,0.315,31.061,1.232,46.452,3.06
		c12.287,1.458,24.873,3.326,36.373,7.584c9.867,3.653,15.936-1.786,24.478-4.465c-1.42-0.781-1.783-1.111-2.194-1.188
		c-16.457-3.043-32.827-6.791-49.406-8.876c-15.721-1.979-31.65-2.449-47.508-3.146c-14.762-0.649-29.55-0.981-44.326-0.98
		c-16.105,0-32.212,0.528-48.316,0.858c-15.11,0.31-30.221,0.628-45.328,1.006c-12.279,0.307-24.591,0.256-36.826,1.181
		c-15.771,1.193-31.534,2.815-47.199,4.985C512.102,10.599,500.661,13.376,489.148,15.632z M647.691,11.914
		c-18.724,0-37.006-0.502-55.246,0.16c-14.488,0.526-29.01,1.889-43.357,3.976c-12.082,1.757-24.42,3.803-35.76,8.071
		c-12.754,4.801-24.979,11.486-36.62,18.671c-31.278,19.305-62.173,39.233-93.104,59.095c-8.424,5.409-16.437,11.458-25.733,17.982
		c6.664,0.766,11.872,1.41,17.093,1.92c0.868,0.085,1.99-0.155,2.66-0.676c6.236-4.844,12.417-9.76,18.563-14.717
		c0.973-0.784,2.426-1.878,2.422-2.823c-0.031-6.755,4.672-8.388,9.865-9.797c3.455-0.938,7.238-1.545,10.164-3.413
		c22.977-14.663,45.845-29.5,68.622-44.472c18.425-12.112,38.245-20.583,60.271-22.894c17.073-1.792,34.215-3.067,51.356-4.019
		c14.25-0.791,28.545-1.019,42.819-0.987C646.915,18.002,647.94,15.655,647.691,11.914z M841.831,25.526
		c8.609,4.007,16.895,7.604,24.949,11.66c26.357,13.274,52.62,26.739,78.943,40.082c9.22,4.673,17.569,11.482,29.334,8.769
		c8.457-1.951,17.291-2.269,26.569-3.389c-1.188-0.847-1.672-1.295-2.237-1.58c-42.49-21.418-85.938-40.617-130.406-57.61
		c-9.075-3.468-16.672-4.196-24.834,0.699C843.587,24.494,843.02,24.824,841.831,25.526z M99.235,207.085
		c8.738,1.989,13.604-0.149,18.542-5.31c6.084-6.355,13.176-12.213,20.828-16.513c21.489-12.075,44.891-14.528,69.081-11.444
		c19.218,2.45,36.26,9.821,50.407,23.054c19.913,18.626,26.297,43.12,28.647,69.105c0.567,6.267,0.295,6.39,6.615,5.364
		c-0.169-1.125-0.47-2.25-0.486-3.377c-0.235-16-3.661-31.395-9.15-46.324c-6.128-16.668-15.418-31.471-30.118-41.685
		c-24.207-16.82-51.635-20.738-80.251-16.811c-21.089,2.895-40.48,10.597-56.586,24.904
		C110.571,193.55,105.452,200.258,99.235,207.085z M651.148,16.641c0.981,0.083,1.967,0.225,2.953,0.242
		c18.609,0.332,37.224,0.503,55.828,1.014c16.727,0.459,33.446,1.212,50.162,1.984c9.934,0.458,19.594,2.43,28.514,6.976
		c25.626,13.059,48.926,29.605,70.658,48.32c10.879,9.368,11.295,14.27,3.958,26.712c-2.372,4.023-5.201,7.776-8.045,11.983
		c1.717,0,3.03,0.002,4.344,0c14.192-0.02,14.146-0.04,19.797-12.928c3.131-7.143,3.625-14.31-1.555-20.438
		c-4.546-5.378-9.5-10.788-15.288-14.669c-20.679-13.866-41.824-27.034-62.703-40.605c-3.557-2.312-6.609-5.387-10.014-7.952
		c-1.727-1.3-3.596-2.669-5.618-3.253c-2.646-0.763-5.498-0.934-8.276-1.091c-18.818-1.061-37.63-2.473-56.464-2.95
		c-20.141-0.51-40.306-0.001-60.458-0.2C654.202,9.739,650.66,10.157,651.148,16.641z M344.174,221.896
		c-0.699,7.968-0.696,8.094,6.385,7.943c9.289-0.198,18.571-0.695,27.859-0.926c15.784-0.393,31.572-0.66,47.357-1.015
		c13.787-0.309,27.572-0.69,41.358-0.991c16.614-0.361,33.229-0.729,49.845-0.993c25.114-0.398,50.23-0.64,75.344-1.112
		c5.396-0.102,10.779-0.906,16.095-1.38c0-2.597,0-4.978,0-7.956c-7.016,0.471-13.604,1.108-20.206,1.316
		c-14.61,0.461-29.228,0.703-43.842,1.038c-14.948,0.342-29.897,0.694-44.847,1.027c-14.953,0.333-29.905,0.638-44.858,0.978
		c-13.945,0.315-27.89,0.699-41.837,0.983c-19.453,0.396-38.906,0.735-58.359,1.078C351.154,221.945,347.84,221.896,344.174,221.896
		z M783.012,238.547c0.438,0.168,0.874,0.335,1.311,0.502c0.124-0.107,0.31-0.191,0.362-0.328c0.356-0.924,0.672-1.863,1.023-2.789
		c7.991-21.056,22.602-35.295,43.732-43.137c16.384-6.08,33.287-7.312,50.554-7.05c14.028,0.212,27.521,2.462,40.438,7.92
		c4.53,1.914,8.814,5.437,13.434,5.876c7.372,0.7,14.931-0.564,22.41-0.998c0.16-0.424,0.32-0.848,0.48-1.271
		c-6.09-3.882-11.919-8.271-18.315-11.556c-22.173-11.383-45.609-16.308-70.679-13.994c-14.105,1.302-27.726,4.105-40.656,9.601
		c-16.288,6.922-27.105,19.826-35.028,35.149C788.438,223.512,785.996,231.17,783.012,238.547z M298.932,127.268
		c0.13-0.364,0.261-0.729,0.392-1.093c-7.264-1.431-14.556-4.15-21.787-4c-11.81,0.247-23.599,2.217-35.362,3.729
		c-17.294,2.224-34.672,4.053-51.807,7.187c-27.928,5.108-55.88,10.344-83.452,17.048c-18.618,4.527-36.693,11.406-54.804,17.819
		c-4.821,1.707-8.877,5.571-13.285,8.445c0.254,0.482,0.508,0.967,0.762,1.45c5.289,0,10.58,0.088,15.864-0.067
		c1.182-0.035,2.397-0.818,3.498-1.436c4.431-2.482,8.538-6.003,13.277-7.392c20.143-5.905,40.299-11.942,60.771-16.491
		c22.603-5.022,45.511-8.733,68.37-12.51c15.271-2.522,30.682-4.203,46.04-6.184C264.579,131.561,281.758,129.433,298.932,127.268z
		 M1121.763,215.443c0-2.172-0.217-4.031,0.043-5.822c0.669-4.617-1.091-6.15-5.76-5.837c-9.093,0.609-18.219,0.772-27.333,1.026
		c-25.212,0.703-50.424,1.422-75.639,2.014c-18.932,0.444-37.868,0.643-56.8,1.096c-3.647,0.087-7.278,0.852-12.638,1.518
		c3.671,3.197,6.948,5.061,8.76,7.87c2.542,3.941,5.517,4.097,9.307,3.048c0.946-0.262,1.945-0.428,2.925-0.459
		c12.108-0.37,24.219-0.707,36.327-1.055c10.945-0.313,21.889-0.652,32.834-0.941c13.44-0.354,26.882-0.684,40.323-0.996
		c15.268-0.355,30.537-0.678,45.805-1.032C1120.384,215.861,1120.847,215.662,1121.763,215.443z M283.139,274.178
		c0.465,10.226,0.92,20.237,1.377,30.308c22.15,0,43.638,0,65.406,0c-1.423-9.148-3.123-17.853-3.985-26.64
		c-0.38-3.873-1.305-5.146-5.26-5.041c-18.407,0.494-36.821,0.711-55.232,1.045C284.644,273.865,283.846,274.072,283.139,274.178z
		 M339.072,121.147c-0.079-0.294-0.157-0.587-0.236-0.881c-8.09-1.345-16.155-2.877-24.277-3.987
		c-9.628-1.316-19.404-3.719-28.939-3.066c-18.02,1.234-35.941,4.118-53.852,6.682c-19.197,2.748-38.454,5.305-57.468,9.045
		c-29.6,5.822-59.077,12.306-88.489,19.02c-20.57,4.695-40.308,11.878-58.507,22.814c-1.596,0.959-3.036,2.178-5.671,4.09
		c5.614,0.861,9.792,1.553,13.99,2.094c0.679,0.088,1.732-0.268,2.125-0.786c5.575-7.372,13.798-10.559,21.938-13.693
		c30.31-11.671,61.928-18.463,93.694-24.6c14.816-2.862,29.685-5.483,44.585-7.865c12.487-1.997,25.056-3.478,37.586-5.205
		c9.104-1.254,18.169-3.015,27.315-3.671c8.775-0.63,17.795-2.14,26.395,0.839c10.58,3.666,21.205,5.22,32.254,2.87
		C327.365,123.601,333.22,122.379,339.072,121.147z M295.881,271.549c15.947,0,32.343,0,48.958,0
		c-1.445-13.385-2.853-26.43-4.192-38.838c-17.264,0-33.93,0-50.427,0C292.16,246.022,293.983,258.529,295.881,271.549z
		 M50.457,273.113c0.125,2.24,0.553,4.268,0.246,6.176c-0.252,1.57-1.049,3.896-2.181,4.309c-2.548,0.93-5.449,1.131-8.214,1.184
		c-7.374,0.143-14.752,0.049-22.144,0.049c0.233,5.701,2.506,9.586,7.997,10.725c3.375,0.701,6.854,1.205,10.292,1.25
		c11.997,0.158,23.999-0.031,35.995,0.132c7.293,0.099,14.581,0.634,21.873,0.907c2.196,0.082,4.507,0.182,4.487-3.127
		c-0.042-7.121-0.013-14.242-0.013-21.604C82.384,273.113,66.447,273.113,50.457,273.113z M785.621,211.498
		c-7.639,0.451-15.039,1.06-22.451,1.29c-14.604,0.454-29.213,0.717-43.82,1.025c-17.118,0.362-34.236,0.688-51.354,1.029
		c-17.453,0.347-34.905,0.69-52.357,1.044c-0.798,0.016-1.593,0.108-2.562,0.178c0,2.671,0,5.051,0,8.23
		c10.576-0.473,20.82-1.045,31.072-1.359c14.611-0.45,29.228-0.711,43.842-1.054c14.112-0.331,28.224-0.675,42.337-0.995
		c15.28-0.346,30.561-0.687,45.842-0.998C783.411,219.74,783.412,219.772,785.621,211.498z M211.837,343.354
		c3.541-0.588,7.438-0.416,10.567-1.883c32.834-15.391,49.73-46.701,46.138-81.027c-2.207-21.084-11.922-38.924-28.899-52.346
		c-21.063-16.653-44.939-21.665-70.453-14.635c-40.42,11.139-62.331,48.062-57.082,86.882c3.722,27.524,19.014,47.839,44.107,60.203
		c3.652,1.8,8.083,2.015,12.154,2.964c0.084-0.4,0.167-0.801,0.251-1.201c-43.951-14.756-59.577-55.115-52.538-88.646
		c7.14-34.012,37.98-61.996,79.054-59.786c30.971,1.666,64.965,25.195,70.318,67.123
		C269.078,289.368,254.864,327.358,211.837,343.354z M895.995,343.392c3.541-0.62,7.418-0.513,10.57-1.973
		c32.775-15.179,51.035-48.524,45.363-85.416c-4.556-29.633-31.334-60.575-62.961-63.032c-11.752-0.912-24.17-1.779-35.421,0.924
		c-40.642,9.766-64.951,49.987-56.377,92.308c4.455,21.991,17.134,39.122,36.448,50.891c5.777,3.521,11.741,7.235,19.331,5.397
		c-43.831-15.544-59.729-54.035-52.885-88.143c6.649-33.131,33.887-57.526,67.489-60.329c38.396-3.203,68.826,20.743,79.118,53.276
		c5.305,16.768,4.646,33.713-2.029,50C935.42,319.795,918.648,334.549,895.995,343.392z M623.5,118.594
		c7.428-32.796,14.842-65.535,22.302-98.479c-3.231,0-6.004,0-9.155,0c-9.67,33.145-19.307,66.18-29.012,99.446
		C613.117,119.228,618.02,118.929,623.5,118.594z M627.354,119.292c4.818-0.545,8.777-0.724,12.591-1.564
		c1.437-0.316,3.404-2.009,3.644-3.341c1.336-7.447,2.077-14.999,3.28-22.473c3.843-23.883,7.8-47.747,11.714-71.62
		c-8.743-1.254-8.878-1.285-10.539,5.889c-5.781,24.982-11.494,49.979-17.151,74.99
		C629.604,106.866,628.645,112.634,627.354,119.292z M100.92,252.615c-25.269,0-49.977,0-73.001,0
		c-2.91,1.918-4.734,3.121-6.943,4.576c-0.104,0.7-0.312,2.11-0.516,3.481c-2.337,0.164-4.36,0.306-6.383,0.447
		c9.67,0.742,19.311,0.896,28.943,0.663c3.634-0.088,5.552,0.805,5.933,4.693c0.118,1.197,1.766,3.199,2.734,3.212
		c15.625,0.202,31.254,0.144,47.091,0.144C99.48,264.184,100.129,258.974,100.92,252.615z M10.798,225.012
		c0,2.588,0.17,4.732-0.037,6.84c-0.389,3.955,1.178,5.226,5.155,5.068c7.472-0.295,14.965-0.055,22.45-0.053
		c20.277,0.005,40.554,0.002,61.004,0.002c1.222-3.991,2.376-7.762,3.63-11.857C72.06,225.012,41.818,225.012,10.798,225.012z
		 M930.59,203.09c-0.104,0.568-0.208,1.139-0.312,1.707c3.058,0.684,6.114,1.938,9.172,1.939c7.932,0.006,15.862-0.592,23.796-0.854
		c11.266-0.371,22.534-0.649,33.801-0.979c11.438-0.333,22.875-0.707,34.313-1.012c13.6-0.36,27.199-0.811,40.802-0.956
		c15.546-0.166,31.094-0.038,46.641-0.038c0.074-0.804,0.147-1.607,0.221-2.41c-4.512-0.871-9.035-2.548-13.532-2.478
		c-22.381,0.353-44.756,1.118-67.13,1.829c-18.885,0.6-37.762,1.412-56.646,1.964c-16.421,0.479-32.848,0.724-49.271,1.081
		C931.824,202.898,931.207,203.02,930.59,203.09z M432.793,109.402c0-2.665,0.117-5.336-0.022-7.995
		c-0.376-7.173-0.799-7.549-7.749-7.569c-2.665-0.008-5.419-0.399-7.979,0.13c-10.509,2.172-16.108,1.165-14.376,14.795
		c1.232,9.698,8.998,15.838,18.847,13.942C432.815,120.53,432.815,120.53,432.793,109.402z M105.695,223.031
		c-1.332,4.153-2.808,7.99-3.757,11.954c-0.77,3.218-2.478,3.951-5.577,3.938c-26.156-0.107-52.313-0.053-78.471-0.048
		c-1.938,0.001-3.875,0-6.209,0c0.631,3.034,1.119,5.384,1.665,8.01c1.922,0,3.566-0.001,5.21,0
		c24.491,0.007,48.982,0.006,73.473,0.04c1.637,0.003,3.4-0.057,4.885,0.499c3.603,1.348,4.917-0.146,5.874-3.474
		c1.946-6.775,4.283-13.438,6.443-20.15c0.068-0.211-0.04-0.479-0.071-0.77C107.812,223.031,106.521,223.031,105.695,223.031z
		 M89.679,207.591c4.938,1.241,8.621,0.023,11.689-4.985c2.892-4.723,6.946-8.865,11.022-12.695
		c5.232-4.918,10.998-9.27,17.198-14.415c-16.87,1.92-32.958,3.751-48.433,5.512C83.955,189.74,86.742,198.434,89.679,207.591z
		 M85.305,206.629c-1.287-4.973-2.458-9.52-3.642-14.064c-1.733-6.652-4.893-11.782-12.799-11.521
		c-3.371,0.11-8.596-0.795-9.773,0.939c-4.896,7.205-6.976,15.637-7.105,24.646C63.211,206.629,73.81,206.629,85.305,206.629z
		 M1104.978,99.935c0.03-0.712,0.06-1.424,0.089-2.136c-15.454-2.009-30.888-4.191-46.367-5.98
		c-17.25-1.993-34.366-6.013-51.923-3.94c-8.922,1.053-17.832,2.21-27.754,3.446c3.977,0.623,6.864,1.298,9.785,1.496
		c20.593,1.394,41.204,2.52,61.784,4.076c13.451,1.017,26.844,2.803,40.294,3.841
		C1095.534,101.096,1100.277,100.237,1104.978,99.935z M284.193,272.016c0.509-0.278,1.018-0.556,1.526-0.834
		c-1.312-8.768-2.199-17.624-4.02-26.285c-4.834-22.988-15.607-42.53-35.883-55.335c-19.207-12.13-40.385-16.732-63.208-14.87
		c-19.019,1.551-36.6,6.681-52.117,17.824c-5.778,4.148-10.821,9.319-16.199,14.024c0.472,0.581,0.943,1.163,1.415,1.745
		c1.316-0.941,2.707-1.795,3.936-2.838c4.537-3.854,8.647-8.344,13.586-11.569c25.858-16.891,54.151-21.036,83.842-13.765
		c28.549,6.992,48.89,24.323,58.33,52.461c3.883,11.575,4.971,24.085,7.394,36.156C283.025,269.873,283.716,270.922,284.193,272.016
		z M376.582,104.434c-0.109-0.214-0.218-0.429-0.327-0.643c-1.588,0.683-3.2,1.315-4.76,2.056
		c-6.495,3.081-12.895,5.201-20.249,2.172c-5.292-2.18-11.028-3.292-16.587-4.801c-1.334-0.362-3.108-1.032-4.08-0.488
		c-5.929,3.321-11.684,6.951-17.593,10.536c0.783,0.83,0.984,1.248,1.241,1.286c12.031,1.787,24.058,3.615,36.113,5.22
		c1.837,0.245,4.186,0.007,5.664-0.968C362.983,114.197,369.744,109.256,376.582,104.434z M926.855,200.018
		c0.129-0.366,0.258-0.732,0.386-1.099c-0.647-0.383-1.277-0.8-1.946-1.144c-14.501-7.451-30.256-10.052-46.215-10.744
		c-14.996-0.651-29.922,1.15-44.294,5.891c-13.365,4.41-25.522,10.809-34.822,21.828c-12.11,14.35-16.186,31.725-18.926,49.608
		c-0.121,0.792,0.998,1.776,1.969,3.381c1.425-7.521,2.338-13.857,3.849-20.048c5.909-24.215,19.865-41.604,43.703-50.184
		c18.222-6.559,36.91-8.739,56.324-6.867c12.279,1.184,23.903,3.993,35.279,8.441C923.625,199.654,925.286,199.719,926.855,200.018z
		 M20.378,178.565c-0.244,0.403-0.488,0.808-0.731,1.211c6.284,1.882,3.312,6.087,2.898,9.517
		c-0.973,8.049-2.147,16.074-3.299,24.548c27.836,0,54.428,0.051,81.019-0.078c2.677-0.013,5.35-1.118,8.024-1.716
		c-0.078-0.389-0.155-0.778-0.233-1.168c-1.307,0-2.614,0-3.921,0c-23.786,0.002-47.573,0.003-71.359,0.008
		c-5.795,0.002-7.104-1.416-5.684-7.162c1.959-7.93,4.277-15.771,6.471-23.755C29.65,179.553,25.014,179.059,20.378,178.565z
		 M28.995,205.15c6.846,2.877,13.112,1.465,19.248,1.355c0.514-0.008,1.236-1.422,1.464-2.287
		c2.032-7.711,3.974-15.446,5.981-23.328c-4.852,0-10.002,0.227-15.119-0.087c-2.906-0.179-4.26,1.03-5.029,3.464
		C33.377,191.114,31.243,197.97,28.995,205.15z M852.574,18.454c-0.191-0.452-0.384-0.903-0.575-1.354
		c-8.065-1.357-13.824,4.599-21.304,7.05c1.021,0.536,1.307,0.702,1.605,0.841c40.949,18.954,81.274,39.121,120.318,61.785
		c5.981,3.472,12.256,5.226,19.238,3.969c4.375-0.787,8.804-1.285,13.212-1.883c7.351-0.997,14.704-1.97,23.092-3.092
		c-1.594-0.868-2.173-1.473-2.69-1.423c-12.138,1.16-24.322,2.035-36.371,3.815c-3.809,0.563-6.731-0.132-9.79-1.685
		c-33.526-17.024-67.014-34.125-100.571-51.086c-6.538-3.305-13.334-6.102-21.304-9.719
		C843.266,22.891,847.92,20.672,852.574,18.454z M1091.753,176.844c0-3.871,0.298-7.202-0.146-10.431
		c-0.178-1.296-1.958-3.361-3.051-3.389c-10.418-0.258-20.845-0.154-31.42-0.154c-0.219,2.055-0.089,3.774-0.615,5.26
		c-1.904,5.365-0.825,8.167,6.747,8.591C1072.52,177.238,1081.82,176.844,1091.753,176.844z M286.992,222.821
		c1.014,7.878,1.248,8.096,8.321,8.085c3.832-0.006,7.663,0.015,11.494-0.045c11.224-0.178,22.447-0.389,33.547-0.584
		c0.839-8.333,0.836-8.455-6.088-8.324c-5.119,0.097-10.228,0.762-15.345,0.827C308.299,222.916,297.675,222.821,286.992,222.821z
		 M1104.538,139.426c-7.802-13.321,2.096-25.554,1.976-38.753c-3.486,0.886-6.407,1.402-9.131,2.435
		c-1.056,0.4-2.181,1.877-2.392,3.025c-0.921,5.003-1.3,10.11-2.295,15.096c-0.875,4.383-2.468,8.654,2.536,11.735
		c0.488,0.3,0.505,1.502,0.588,2.302c0.682,6.532,1.428,13.059,1.938,19.604c0.251,3.218,0.043,6.472,0.043,9.71
		c0.381-0.014,0.761-0.027,1.142-0.041c0-8.094,0-16.188,0-24.395C1100.779,139.909,1102.214,139.725,1104.538,139.426z
		 M1089.573,133.888c-3.074,0-5.564-0.125-8.036,0.036c-2.443,0.159-4.864,0.828-7.305,0.887
		c-8.999,0.222-12.135,3.411-12.358,12.727c9.222,0,18.443,0,27.699,0C1089.573,142.953,1089.573,138.704,1089.573,133.888z
		 M1090.622,150.099c-10.397,0-20.291,0-30.382,0c-0.816,3.583-1.591,6.979-2.389,10.478c11.185,0,21.886,0,32.771,0
		C1090.622,157.028,1090.622,153.772,1090.622,150.099z M398.426,107.151c-6.411,5.301-14.101,8.707-19.859,16.483
		c12.616,1.202,23.792,2.267,34.968,3.332c-4.416-2.248-9.15-3.072-12.905-5.446C395.242,118.116,399.873,112.301,398.426,107.151z
		 M33.89,263.242c1.038,4.989,2.205,9.584,2.905,14.248c0.738,4.92,3.653,5.902,7.959,5.346c4.853-0.627,4.314-4.228,3.963-7.361
		C47.285,262.678,46.313,261.929,33.89,263.242z M17.653,216.093c0.167,0.253,0.334,0.507,0.501,0.761c2.061,0,4.122,0,6.182,0
		c27.468,0.002,54.937-0.107,82.403,0.117c4.643,0.038,7.555-1.132,8.706-6.321c-1.512,0.432-2.852,0.784-4.172,1.198
		c-3.164,0.995-6.307,2.855-9.478,2.896c-20.306,0.261-40.617,0.125-60.926,0.121c-6.659-0.002-13.319-0.053-19.976,0.058
		C19.807,214.941,18.733,215.685,17.653,216.093z M19.503,220.42c13.162,2.756,88.267,1.759,90.632,0
		C80.071,220.42,49.787,220.42,19.503,220.42z M1088.953,130.624c1.154-8.275,2.284-16.378,3.415-24.481
		c-7.674,6.563-11.445,14.673-12.761,24.481C1082.943,130.624,1085.56,130.624,1088.953,130.624z M16.676,249.359
		c-0.006,0.479-0.011,0.959-0.017,1.439c28.269,0.139,56.54,0.021,84.81,0.054c0.005-0.498,0.011-0.996,0.017-1.493
		C73.216,249.359,44.946,249.359,16.676,249.359z M819.292,141.208c0.313-0.488,0.628-0.975,0.941-1.463
		c-1.501-1.623-2.903-4.522-4.519-4.647c-6.813-0.525-13.689-0.222-20.33-0.222c-0.688,3.121-1.061,4.812-1.396,6.332
		C802.587,141.208,810.939,141.208,819.292,141.208z M587.643,143.785c-8.166,0-15.936,0-23.935,0
		c0.146,2.39,0.233,3.812,0.297,4.85c8.446,0,16.505,0,25,0C588.395,146.461,587.924,144.787,587.643,143.785z M563.327,150.496
		c0.624,4.688,2.806,6.686,7.014,6.333c4.097-0.344,8.203-0.922,12.297-0.859c4.246,0.065,6.399-1.585,6.555-5.473
		C580.603,150.496,572.056,150.496,563.327,150.496z M821.24,143.137c-10.129,0-18.483,0-26.856,0
		c0.198,4.299,2.693,5.8,6.247,5.671c5.121-0.186,10.272-0.393,15.324-1.165C817.52,147.404,818.799,145.3,821.24,143.137z
		 M19.75,180.484c-5.077,12.609-6.214,24.316-5.803,36.333c4.9-10.085,4.104-21.542,7.665-31.935
		C21.886,184.083,20.778,182.811,19.75,180.484z M8.756,254.396c-1.113-8.9-1.934-16.263-3.047-23.58
		c-0.183-1.202-1.648-2.209-2.521-3.306c-0.483,0.312-0.966,0.625-1.449,0.937c1.053,7.953,2.034,15.918,3.282,23.84
		C5.134,252.996,6.979,253.434,8.756,254.396z M233.453,188.627c0.044-0.176,0.088-0.35,0.132-0.524c-28.586,0-57.172,0-85.758,0
		c0,0.175,0,0.349-0.001,0.524C176.368,188.627,204.911,188.627,233.453,188.627z M228.456,186.719
		c0.062-0.165,0.123-0.33,0.185-0.496c-25.485,0-50.97,0-76.455,0c0.001,0.166,0.002,0.331,0.003,0.496
		C177.611,186.719,203.034,186.719,228.456,186.719z M819.852,133.176c1.949,8.499,1.949,8.499,10.757,7.248
		C830.579,133.672,828.721,132.419,819.852,133.176z M22.15,263.102c1.815,8.737,1.815,8.737,10.396,7.218
		C30.743,262.674,30.743,262.674,22.15,263.102z M24.902,275.279c1.321,8.191,1.321,8.191,9.691,7.197
		C34.873,274.82,34.122,274.24,24.902,275.279z M793.229,134.184c-8.167-0.719-9.527,0.251-10.157,7.239
		C793.646,142.345,792.199,142.577,793.229,134.184z M600.728,147.96c-1.504-7.255-2.169-7.625-11.527-6.797
		c0.624,2.468,1.235,4.884,1.72,6.797C594.445,147.96,597.357,147.96,600.728,147.96z M481.17,19.447
		c5.033,3.628,12.494,2.886,15.348,9.789c1.197-0.657,3.279-1.799,5.454-2.993C495.646,20.881,485.146,17.476,481.17,19.447z
		 M561.472,149.709c0.145-1.579,0.231-2.709,0.354-3.835c0.135-1.231,0.303-2.459,0.456-3.683c-7.179-0.641-9.245,1.075-9.312,7.518
		C555.614,149.709,558.257,149.709,561.472,149.709z M220.45,183.727c0.068-0.167,0.136-0.335,0.204-0.502
		c-19.839,0-39.678,0-59.517,0c0.001,0.167,0.002,0.335,0.003,0.502C180.91,183.727,200.68,183.727,220.45,183.727z M85.918,208.637
		c0.142-0.16,0.284-0.32,0.427-0.481c-18.835,0-37.67,0-56.505,0c-0.001,0.161-0.002,0.321-0.004,0.481
		C48.53,208.637,67.224,208.637,85.918,208.637z M24.88,253.818c-5.193-2.035-9.945-2.516-12.16-5.139
		c-2.362-2.797-2.328-7.618-3.339-11.556c-0.191,4.845,0.16,9.664,0.793,14.444c0.11,0.831,1.376,2.1,2.17,2.148
		C16.059,253.945,19.796,253.818,24.88,253.818z M21.088,270.647c-0.537-2.774-1.008-5.208-1.431-7.392c-2.605,0-4.653,0-6.955,0
		c0.598,2.764,1.103,5.101,1.599,7.392C16.484,270.647,18.434,270.647,21.088,270.647z M17.232,282.84
		c1.266,0,2.249,0.051,3.224-0.014c1.083-0.072,2.158-0.25,3.248-0.384c-1.334-8.188-1.471-8.305-8.2-6.823
		C16.067,277.967,16.627,280.309,17.232,282.84z M212.433,181.586c0.053-0.167,0.105-0.335,0.158-0.502c-14.852,0-29.704,0-44.555,0
		c-0.001,0.167-0.001,0.335-0.002,0.502C182.833,181.586,197.633,181.586,212.433,181.586z M1092.01,148.519
		c1.646-0.983,3.63-1.703,3.578-2.212c-0.401-3.875-1.199-7.71-1.874-11.557c-0.567,0.115-1.136,0.23-1.704,0.345
		C1092.01,139.103,1092.01,143.112,1092.01,148.519z M1095.275,160.562c1.404-8.171,0.891-10.148-2.652-10.193
		C1093.203,159.897,1093.203,159.897,1095.275,160.562z M408.057,122.69c0.369-0.399,0.738-0.798,1.107-1.197
		c-2.988-2.137-5.975-4.273-8.622-6.166C399.159,119.142,401.877,122.293,408.057,122.69z M1095.514,184.236
		c4.453,1.566,4.734-0.808,4.136-3.281c-0.568-2.348-1.792-4.537-2.699-6.727C1096.512,177.286,1096.03,180.638,1095.514,184.236z
		 M168.623,191.61c-0.001-0.14-0.003-0.28-0.005-0.42c-8.846,0-17.692,0-26.539,0c0.002,0.14,0.004,0.28,0.006,0.42
		C150.931,191.61,159.776,191.61,168.623,191.61z M212.159,191.008c-0.062,0.166-0.123,0.33-0.184,0.496c8.83,0,17.659,0,26.488,0
		c-0.002-0.166-0.005-0.33-0.007-0.496C229.69,191.008,220.924,191.008,212.159,191.008z M18.51,259.691
		c1.076-4.975-2.396-3.817-4.452-3.663c-0.944,0.071-1.765,1.79-3.456,3.663C14.358,259.691,16.29,259.691,18.51,259.691z
		 M1095.148,175.789c0.246-4.226,0.491-8.451,0.768-13.209C1093.382,164.009,1093.382,164.009,1095.148,175.789z"/>
	<path fill-rule="evenodd" clip-rule="evenodd" fill="#F44E21" d="M874.187,326.876c-29.423,2.122-57.289-26.288-57.814-56.356
		c-0.563-32.27,27.884-58.244,56.086-59.017c32.974-0.903,59.693,28.036,59.774,57.764
		C932.318,300.373,903.806,329.09,874.187,326.876z M873.976,323.816c30.735-1.034,54.578-22.926,54.434-54.438
		c-0.142-30.937-22.054-53.842-54.102-54.127c-30.678-0.273-53.84,22.389-54.156,54.07
		C819.851,299.357,842.446,322.545,873.976,323.816z"/>
	<path fill-rule="evenodd" clip-rule="evenodd" fill="#F44E21" d="M190.145,326.871c-30.471,1.379-58.053-24.641-58.072-57.547
		c-0.019-31.275,26.275-60.411,63.411-57.565c25.772,1.975,54.541,25.627,52.46,61.771
		C246.343,301.328,220.526,328.674,190.145,326.871z M135.82,269.515c0.982,31.187,24.193,54.177,54.302,54.087
		c29.675-0.088,54.021-21.722,54.103-54.089c0.08-31.829-23.62-54.506-54.911-54.292
		C159.246,215.426,136.788,238.486,135.82,269.515z"/>
	<path fill-rule="evenodd" clip-rule="evenodd" fill="#F44E21" d="M874.141,320.881c-28.056,0.398-50.298-23.245-51.438-48.883
		c-1.366-30.707,23.705-53.289,49.247-54.155c30.881-1.048,52.638,23.401,53.924,48.902
		C927.408,297.17,901.918,321.616,874.141,320.881z M887.079,292.332c2.282,0.902,4.009,1.635,5.772,2.263
		c0.946,0.337,1.956,0.497,2.938,0.737c0.025-1.141,0.186-2.299,0.047-3.42c-0.233-1.879-0.657-3.733-1.096-6.116
		c3.438,0.706,5.627,1.156,9.631,1.979c-1.943-3.789-3.31-6.451-4.756-9.27c2.965-1.226,5.639-2.331,9.061-3.745
		c-3.373-2.146-5.534-3.521-8.515-5.418c3.033-1.821,5.283-3.172,8.771-5.265c-3.643-1.514-6.446-2.68-8.769-3.645
		c-1.304-3.936,6.46-4.832,2.231-8.957c-2.475,0.489-4.778,0.944-8.11,1.603c0.771-2.856,1.358-4.657,1.714-6.503
		c0.187-0.972-0.03-2.021-0.065-3.035c-0.978,0.156-2.002,0.178-2.924,0.496c-1.863,0.645-3.672,1.449-6.016,2.396
		c0-3.498,0-5.911,0-10.083c-3.29,2.556-5.753,4.469-8.512,6.611c-0.791-1.646-1.463-3.275-2.342-4.784
		c-0.492-0.846-1.325-1.493-2.005-2.229c-0.57,0.686-1.267,1.303-1.684,2.071c-0.898,1.658-1.654,3.394-2.867,5.934
		c-2.231-2.692-3.864-4.663-5.491-6.624c-0.885,0.313-1.9,0.674-2.633,0.936c0,2.66,0,5.035,0,8.271
		c-2.355-1.022-4.065-1.849-5.84-2.501c-0.912-0.336-1.939-0.361-2.914-0.526c-0.054,1.024-0.288,2.08-0.124,3.069
		c0.324,1.946,0.868,3.855,1.537,6.694c-2.452-0.675-3.665-1.21-4.909-1.295c-1.226-0.085-2.482,0.286-3.726,0.458
		c0.367,1.21,0.586,2.494,1.14,3.611c0.695,1.404,1.666,2.672,2.269,3.61c-2.063,3.433-7.749,0.308-7.891,5.28
		c2.381,1.461,4.479,2.748,7.307,4.482c-2.284,1.482-3.683,2.29-4.964,3.253c-0.889,0.668-1.617,1.55-2.418,2.335
		c1.04,0.613,2.023,1.373,3.134,1.806c1.582,0.616,3.256,0.993,5.265,1.583c-0.813,1.465-1.324,2.279-1.732,3.143
		c-0.762,1.607-1.463,3.242-2.188,4.865c1.756,0.061,3.603-0.189,5.238,0.285c1.184,0.345,2.171,1.58,3.052,2.588
		c0.188,0.215-0.588,1.139-0.696,1.775c-0.225,1.323-0.299,2.672-0.436,4.011c1.252-0.29,2.512-0.549,3.753-0.879
		c1.618-0.431,3.222-0.918,5.253-1.503c0,3.08,0,5.345,0,7.884c4.517,1.971,4.758-3.867,8.372-4.783
		c0.737,1.491,1.439,3.095,2.313,4.6c0.513,0.883,1.301,1.605,1.965,2.399c0.663-0.773,1.452-1.475,1.961-2.34
		c0.88-1.492,1.585-3.086,2.584-5.078c2.403,2.107,4.353,3.817,6.556,5.748c0.092-0.041,1.066-0.486,1.76-0.803
		C887.079,297.703,887.079,295.449,887.079,292.332z M904.037,269.418c4.993,3.667,15.425,3.533,19.33-0.247
		C918.099,265.773,908.749,265.893,904.037,269.418z M824.309,268.76c5.433,4.284,15.931,4.209,20.536,0.129
		C838.151,265.999,831.776,266.038,824.309,268.76z M869.263,240.395c2.314-5.392,0.075-16.646-3.843-19.31
		C863.388,226.326,865.469,236.783,869.263,240.395z M868.994,298.566c-4.05,4.439-5.569,15.367-2.931,19.115
		C869.617,313.775,871.376,303.118,868.994,298.566z M846.974,261.34c-2.79-6.59-13.965-10.617-19.351-6.865
		C833.681,256.624,839.738,258.773,846.974,261.34z M921.688,253.175c-6.827-2.095-16.864,1.617-19.517,6.577
		C909.551,260.465,915.035,256.814,921.688,253.175z M828.083,286.562c7.143,0.582,16.315-3.25,18.117-7.366
		C839.994,278.566,830.379,282.338,828.083,286.562z M901.89,278.692c2.547,4.959,12.273,8.667,19.541,7.458
		C915.48,281.26,909.436,279.057,901.89,278.692z M859.312,295.234c-5.021,2.602-10.416,11.686-9.758,16.429
		C854.235,310.348,860.048,300.562,859.312,295.234z M836.841,238.157c1.459,5.614,10.207,12.532,14.805,11.972
		C849.781,244.865,841.748,238.176,836.841,238.157z M898.326,287.089c-0.395,0.462-0.789,0.925-1.185,1.388
		c1.065,5.773,10.827,13.227,15.778,10.528C907.798,294.822,903.062,290.956,898.326,287.089z M911.737,238.323
		c-5.229-0.282-13.747,7.134-14.38,12.168C902.381,249.907,910.238,243.409,911.737,238.323z M883.103,318.04
		c1.691-8.033,0.06-16.048-3.792-19.665C877.138,303.277,879.07,314.172,883.103,318.04z M857.72,244.377
		c0.749-0.401,1.497-0.803,2.246-1.205c-0.245-6.354-4.616-10.766-8.089-15.57c-0.312-0.43-1.684-0.593-2.15-0.275
		c-0.492,0.336-0.904,1.629-0.639,2.105C851.883,234.459,854.821,239.407,857.72,244.377z M851.573,287.607
		c-6.736,2.525-11.398,6.729-15.648,12.453C841.522,301.043,850.312,293.814,851.573,287.607z M882.603,221.234
		c-3.668,3.564-5.464,14.813-3.032,18.992C883.536,236.225,885.122,226.291,882.603,221.234z M889.329,243.924
		c6.368-4.318,10.827-13.686,8.341-16.918C892.702,231.24,888.692,239.125,889.329,243.924z M889.158,295.255
		c-0.403,5.091,4.474,13.935,9.078,16.464C900.04,307.49,894.643,297.702,889.158,295.255z M843.411,237.759
		c1.227,1.3,1.955,2.581,3.048,3.11c1.619,0.785,3.496,1.035,5.264,1.514c-0.264-1.705-0.352-3.463-0.85-5.096
		c-0.386-1.267-1.285-2.377-1.99-3.616C846.863,235.18,845.296,236.352,843.411,237.759z M892.756,309.347
		c-4.282-6.98-4.282-6.98-8.217-5.462c0.494,2.536,1.002,5.143,1.538,7.893C888.537,310.883,890.52,310.16,892.756,309.347z
		 M855.733,229.358c1.714,2.782,3.165,5.14,4.649,7.552c6.505-2.318,1.779-6.412,2.233-9.81
		C860.216,227.889,858.184,228.555,855.733,229.358z M898.519,232.73c-0.585,3.969-1.01,6.853-1.435,9.736
		c2.722-1.15,5.443-2.301,9.11-3.851C903.253,236.36,901.616,235.105,898.519,232.73z M838.763,295.631
		c1.805-3.243,3.272-5.88,4.739-8.518c-2.876,0.09-5.752,0.178-9.624,0.299C835.834,290.703,836.977,292.625,838.763,295.631z
		 M913.851,288.938c-0.06-0.64-0.12-1.278-0.18-1.918c-2.823,0-5.646,0-8.47,0c1.398,2.659,2.796,5.319,4.549,8.655
		C911.549,292.721,912.7,290.83,913.851,288.938z M916.63,257.262c-3.291,2.319-5.522,3.891-7.753,5.463
		c2.656,1.263,5.312,2.526,7.969,3.789c0.364-0.41,0.729-0.819,1.094-1.229C917.56,262.955,917.18,260.627,916.63,257.262z
		 M830.546,265.031c0.379,0.476,0.758,0.951,1.137,1.428c2.675-1.123,5.349-2.246,8.023-3.37c-2.093-1.435-4.176-2.882-6.286-4.289
		c-0.371-0.247-0.854-0.327-1.577-0.591C831.396,260.559,830.972,262.795,830.546,265.031z M852.81,297.832
		c-3.711-2.561-5.993-1.576-8.932,3.822c1.681,1.143,3.386,2.3,5.26,3.572C850.521,302.441,851.674,300.119,852.81,297.832z
		 M899.558,305.211c2.074-1.535,3.719-2.754,5.921-4.384c-2.042-1.591-3.562-3.053-5.342-4.046c-0.915-0.51-2.296-0.184-3.467-0.234
		c0.037,1.157-0.203,2.416,0.175,3.449C897.452,301.658,898.467,303.171,899.558,305.211z M833.72,251.477
		c4.056,0.076,6.954,0.13,9.854,0.184c-1.473-2.641-2.945-5.281-4.736-8.492C837.013,246.131,835.836,248.041,833.72,251.477z
		 M892.896,229.388c-2.528-0.818-4.642-1.502-6.862-2.221c-0.423,2.184-1.044,4.104-1.064,6.032
		c-0.011,0.986,0.858,2.271,1.716,2.855c0.423,0.289,1.995-0.474,2.565-1.16C890.507,233.382,891.456,231.615,892.896,229.388z
		 M877.475,313.037c0.344-0.54,0.688-1.081,1.031-1.621c-1.455-2.146-2.911-4.29-4.366-6.436c-1.336,2.274-2.673,4.549-4.735,8.057
		C873.161,313.037,875.317,313.037,877.475,313.037z M909.605,242.939c-1.768,3.529-3.119,6.227-4.471,8.924
		c2.897-0.197,5.796-0.394,9.443-0.642C912.642,247.997,911.555,246.188,909.605,242.939z M855.573,309.248
		c2.832,0.998,4.829,1.703,6.963,2.455c0.504-2.857,0.976-5.537,1.498-8.501C858.253,301.775,858.281,306.723,855.573,309.248z
		 M918.063,273.401c-2.551,0.182-4.507,0.103-6.343,0.536c-1.054,0.249-1.912,1.33-2.857,2.037c0.658,0.799,1.164,1.89,2.009,2.332
		c1.729,0.904,3.641,1.461,5.776,2.274C917.118,278.196,917.574,275.881,918.063,273.401z M872.238,233.692
		c6.944,0.911,3.48-5.04,6.114-7.493c-3.047,0-5.212,0-7.628,0C871.25,228.799,871.694,230.998,872.238,233.692z M830.504,272.165
		c0.559,3.528,0.942,5.954,1.349,8.524c2.975-1.225,5.485-2.258,8.041-3.31C838.793,271.623,833.778,275.243,830.504,272.165z
		 M868.697,219.984c0.689,4.973,4.197,4.084,6.92,3.728c1.719-0.225,3.272-1.712,4.899-2.634c-0.222-0.365-0.444-0.729-0.667-1.094
		C876.2,219.984,872.55,219.984,868.697,219.984z M847.311,311.6c0.545-6.831-3.921-10.271-9.379-7.753
		C840.942,306.336,843.803,308.7,847.311,311.6z M879.854,318.676c-0.659-4.518-3.959-4.062-6.722-3.672
		c-1.676,0.236-3.191,1.611-4.779,2.477c0.228,0.398,0.454,0.797,0.681,1.195C872.594,318.676,876.154,318.676,879.854,318.676z
		 M900.005,309.646c0.609,0.459,1.219,0.92,1.827,1.379c2.978-2.439,5.954-4.879,9.212-7.549c-1.964-0.673-3.29-1.127-5.16-1.768
		C903.922,304.358,901.963,307.002,900.005,309.646z M911.019,235.234c-3.337-2.623-6.406-5.036-9.475-7.448
		c-0.551,0.524-1.103,1.048-1.654,1.572c2.1,2.626,4.2,5.251,6.15,7.69C908.011,236.33,909.208,235.895,911.019,235.234z
		 M852.122,314.159c3.446,1.261,6.821,2.495,10.197,3.731c0.341-0.406,0.681-0.812,1.021-1.217
		c-1.062-1.254-1.893-3.132-3.233-3.626C857.608,312.127,854.565,309.614,852.122,314.159z M847.511,227.212
		c-3.693,3.024-6.659,5.453-9.94,8.14C843.532,237.102,847.631,233.955,847.511,227.212z M824.174,271.217
		c0.987,5.094,1.688,8.704,2.358,12.163c6.142-2.127,1.634-5.985,1.996-8.993C828.604,273.75,826.488,272.848,824.174,271.217z
		 M824.462,266.074c5.889,0.732,3.93-3.848,5.011-6.057c0.521-1.066-1.049-3.156-1.672-4.783c-0.43,0.078-0.86,0.157-1.291,0.236
		C825.84,258.941,825.17,262.412,824.462,266.074z M921.903,255.149c-5.111,2.224-2.359,5.786-1.913,8.694
		c0.163,1.068,2.014,1.877,3.095,2.805c0.349-0.243,0.698-0.485,1.047-0.729C923.388,262.324,922.644,258.729,921.903,255.149z
		 M919.936,289.312c-5.404-1.527-5.611,3.002-7.23,5.367c-0.524,0.766,0.644,2.688,1.416,5.418
		C916.551,295.59,918.194,292.541,919.936,289.312z M833.985,298.828c0.512-0.072,1.023-0.146,1.534-0.219
		c-0.075-1.706,0.312-3.617-0.331-5.072c-1.093-2.471-1.968-6.006-6.624-3.952C830.414,292.739,832.2,295.783,833.985,298.828z
		 M885.35,317.098c0.44,0.265,0.88,0.529,1.32,0.795c3.297-1.326,6.595-2.652,9.893-3.979c-0.15-0.67-0.3-1.34-0.45-2.011
		c-2.856,0.351-5.824,0.358-8.516,1.224C886.532,313.469,886.08,315.717,885.35,317.098z M835.428,240.184
		c-0.528-0.013-1.056-0.025-1.584-0.037c-1.735,3.02-3.472,6.04-5.267,9.164c4.879,1.85,5.567-1.883,6.735-4.283
		C835.955,243.707,835.428,241.816,835.428,240.184z M924.093,272.564c-0.346-0.221-0.691-0.441-1.037-0.662
		c-1.079,1.024-2.97,1.97-3.078,3.088c-0.274,2.817-3.42,6.445,2.068,8.485C922.729,279.829,923.411,276.197,924.093,272.564z
		 M896.604,224.853c-3.656-1.347-6.989-2.573-10.321-3.8c-0.16,2.039,0.365,4.197,1.453,4.533
		C890.494,226.438,893.627,229.266,896.604,224.853z M914.919,240.162c-0.634-0.01-1.269-0.02-1.902-0.029
		c0,1.639-0.567,3.588,0.124,4.846c1.27,2.311,1.862,6.268,6.584,4.339C918.107,246.238,916.513,243.199,914.919,240.162z
		 M852.181,224.797c0.122,0.708,0.244,1.416,0.366,2.123c2.826-0.377,5.767-0.414,8.424-1.299c1.055-0.351,1.484-2.58,2.841-5.191
		C858.879,222.282,855.53,223.54,852.181,224.797z"/>
	<path fill-rule="evenodd" clip-rule="evenodd" fill="#F44E21" d="M190.106,320.867c-26.434,0.939-53.491-23.067-51.402-55.104
		c1.579-24.225,22.788-48.93,53.204-47.885c27.282,0.938,49.7,23.186,49.884,51.402
		C241.979,297.846,217.759,321.455,190.106,320.867z M215.874,278.16c1.43-0.439,2.872-0.754,4.2-1.329
		c1.03-0.446,1.918-1.22,2.869-1.849c-0.656-0.73-1.249-1.533-1.982-2.176c-1.31-1.147-2.704-2.199-4.605-3.727
		c2.653-1.509,4.745-2.699,8.174-4.65c-3.241-1.65-5.96-3.035-8.332-4.242c-1.773-3.701,6.455-4.474,2.026-8.781
		c-2.208,0.475-4.409,0.949-7.35,1.582c0.363-3.608,0.68-6.764,1.011-10.047c-3.635,1.407-6.046,2.341-9.151,3.543
		c0-3.565,0-5.987,0-9.931c-3.369,2.644-5.775,4.532-8.364,6.563c-1.162-2.578-2.16-4.794-3.853-8.549
		c-1.971,3.379-3.463,5.938-5.333,9.143c-1.983-2.4-3.611-4.37-5.221-6.318c-0.836,0.254-1.896,0.574-2.227,0.675
		c-0.285,2.822-0.518,5.14-0.752,7.456c-2.555-0.684-5.109-1.367-8.844-2.365c0.316,1.844,0.703,3.613,0.898,5.403
		c0.129,1.178,0.289,2.531-0.181,3.511c-0.203,0.422-1.978,0.211-3.013,0.081c-1.25-0.156-2.473-0.53-3.759-0.821
		c-3.673,4.328,3.509,5.35,2.424,9.299c-1.179,0.348-2.741,0.676-4.19,1.274c-1.213,0.501-2.295,1.319-3.435,1.996
		c0.829,0.746,1.67,1.479,2.485,2.24c1.145,1.069,2.27,2.16,3.403,3.242c-1.132,1.075-2.304,2.11-3.383,3.235
		c-0.994,1.037-1.888,2.169-2.946,3.397c3.692,0.972,6.105,1.607,8.922,2.35c-0.93,1.587-1.466,2.405-1.904,3.272
		c-0.815,1.617-1.573,3.264-2.355,4.897c1.801,0.024,3.751,0.509,5.371-0.021c3.313-1.082,3.558,0.436,3.019,2.922
		c-0.207,0.956-0.902,1.822-1.031,2.777c-0.133,0.985,0.152,2.027,0.254,3.045c0.975-0.207,1.981-0.322,2.918-0.639
		c1.762-0.595,3.485-1.307,5.81-2.193c0,3.26,0,5.647,0,8.148c0.901,0.254,1.927,0.543,2.402,0.676
		c1.794-2.016,3.378-3.795,5.708-6.412c1.005,2.683,1.551,4.493,2.374,6.168c0.363,0.738,1.24,1.572,1.976,1.67
		c0.572,0.075,1.518-0.794,1.893-1.469c0.984-1.771,1.746-3.665,2.849-6.059c1.919,2.035,3.228,3.514,4.648,4.877
		c0.508,0.488,1.627,1.136,1.875,0.943c0.709-0.547,1.465-1.445,1.568-2.284c0.229-1.871,0.071-3.79,0.071-6.817
		c3.479,1.672,5.884,2.828,9.486,4.561c-0.551-3.908-0.991-7.033-1.372-9.738c3.073,0,5.486,0,7.898,0
		C217.914,284.062,217.005,281.434,215.874,278.16z M140.96,269.408c5.095,3.592,14.792,3.415,19.566-0.117
		C155.309,265.852,145.772,265.824,140.96,269.408z M239.739,270.312c-5.586-4.674-15.501-4.576-19.949-0.268
		C226.3,272.87,232.473,272.406,239.739,270.312z M184.784,240.168c2.617-4.432,0.608-15.822-3.109-19.119
		C179.324,224.81,180.929,235.503,184.784,240.168z M184.776,298.625c-3.999,5.035-5.434,15.369-2.875,19.064
		C185.46,314.017,187.302,302.9,184.776,298.625z M143.964,285.881c7.474,1.327,16.073-2.309,18.234-7.012
		C154.975,278.575,149.354,281.963,143.964,285.881z M164.085,310.6c5.945,0.178,12.236-10.634,9.56-16.322
		C170.458,299.718,167.271,305.158,164.085,310.6z M213.193,250.486c5.53-0.477,13.888-7.771,14.121-12.325
		C222.076,238.224,213.667,245.562,213.193,250.486z M152.901,238.516c1.344,5.377,10.281,12.357,14.731,11.506
		C165.098,244.121,157.333,238.057,152.901,238.516z M236.231,251.254c-7.037,2.057-13.884,1.914-18.76,8.188
		C224.929,260.242,234.442,256.438,236.231,251.254z M195.46,298.147c-2.603,4.829-0.588,16.263,3.204,19.276
		C200.923,312.264,199.66,304.014,195.46,298.147z M195.301,240.652c4.427-5.748,5.773-15.24,3.026-19.379
		C194.813,225.01,193.036,235.814,195.301,240.652z M165.26,227.135c-0.074,5.622,5.393,14.475,10.153,16.439
		C175.825,237.735,170.112,228.484,165.26,227.135z M167.821,287.516c-7.2,2.605-11.987,6.66-15.837,12.826
		C157.701,300.816,165.475,294.39,167.821,287.516z M162.367,259.732c-3.31-5.144-13.146-8.697-19.271-6.645
		C149.286,256.819,154.735,260.453,162.367,259.732z M217.653,279.41c3.181,4.285,12.496,7.759,18.032,7.02
		C234.59,282.32,224.758,278.359,217.653,279.41z M214.482,311.855c0.444-6.166-4.703-14.79-9.472-16.355
		C204.82,300.752,209.508,309.055,214.482,311.855z M227.569,300.33c-1.422-4.727-9.467-11.287-14.532-11.854
		C214.049,293.786,222.825,300.943,227.569,300.33z M204.855,243.674c5.833-2.883,10.764-12.496,8.598-17.201
		C209.712,231.898,204.56,236.169,204.855,243.674z M158.078,238.588c4.221,0.514,6.011,7.322,10.621,2.256
		c-1.307-2.528-2.473-4.785-3.78-7.313C162.76,235.126,160.928,236.48,158.078,238.588z M232.65,258.092
		c-2.382,0.979-4.415,1.669-6.288,2.662c-0.692,0.367-1.305,1.414-1.39,2.213c-0.058,0.539,0.779,1.576,1.372,1.713
		c2.295,0.528,4.653,0.785,7.685,1.252C233.494,262.895,233.106,260.686,232.65,258.092z M158.564,300.503
		c2.443,1.825,4.357,3.255,6.427,4.802c1.398-2.74,2.503-4.906,3.712-7.276C163.953,293.047,162.31,299.381,158.564,300.503z
		 M171.604,229.391c1.639,2.622,3.101,4.962,4.599,7.359c7.037-1.965,1.148-6.469,2.666-9.769
		C176.199,227.867,174.057,228.576,171.604,229.391z M220.595,301.451c0.206-0.601,0.412-1.201,0.618-1.801
		c-2.85-1.024-5.699-2.049-8.548-3.072c0.708,2.832,1.417,5.664,2.269,9.069C217.497,303.748,219.046,302.6,220.595,301.451z
		 M178.042,311.829c-0.965-3.254,5.545-8.331-1.982-9.528c-1.524,2.381-2.911,4.547-4.441,6.938
		C173.949,310.179,175.995,311.004,178.042,311.829z M153.877,294.325c0.535,0.188,1.07,0.376,1.606,0.563
		c1.245-2.689,2.489-5.38,3.733-8.07c-2.804,0.217-5.609,0.433-9.258,0.715C151.767,290.668,152.822,292.496,153.877,294.325z
		 M210.002,308.98c-3.208-2.547-5.509-4.374-7.81-6.201c-0.395,2.881-0.789,5.762-1.275,9.311
		C204.323,310.924,206.339,310.234,210.002,308.98z M187.485,305.26c0.18,2.681,0.007,5.319,0.771,7.652
		c0.182,0.554,3.499,0.082,5.374,0.082c0.135-0.445,0.269-0.891,0.404-1.337C191.423,310.046,195.017,303.875,187.485,305.26z
		 M234.159,272.098c-3.854,1.637-6.573,2.791-9.292,3.944c2.392,1.672,4.784,3.343,7.669,5.359
		C233.104,278.149,233.511,275.813,234.159,272.098z M200.804,226.736c0.614,3.661,1.09,6.5,1.566,9.338
		c1.88-2.18,3.761-4.36,5.844-6.775C206.162,228.589,204.217,227.916,200.804,226.736z M155.983,263.408
		c-0.163-0.622-0.325-1.244-0.487-1.867c-2.447-1.115-4.894-2.23-7.947-3.623c-0.295,2.844-0.547,5.268-0.91,8.766
		C150.494,265.332,153.239,264.37,155.983,263.408z M149.82,251.479c3.974,0,6.868,0,9.762,0c-1.513-2.377-3.025-4.754-5.033-7.907
		C152.752,246.575,151.692,248.348,149.82,251.479z M225.512,243.154c-1.907,3.662-3.254,6.251-4.602,8.839
		c2.883-0.22,5.766-0.44,9.446-0.722C228.525,248.203,227.462,246.422,225.512,243.154z M219.839,288.57
		c2.242,2.088,4.138,3.854,6.331,5.896c1.375-2.241,2.477-4.035,4.055-6.606C226.392,288.022,223.341,283.129,219.839,288.57z
		 M216.032,233.839c-0.582-0.019-1.164-0.036-1.746-0.056c-0.401,2.914-0.802,5.828-1.203,8.742c2.648-1.1,5.297-2.199,8.749-3.631
		C219.19,236.591,217.611,235.215,216.032,233.839z M186.721,226.073c0.531,2.778,0.998,5.226,1.459,7.642
		c6.79,0.809,3.602-5.008,6.129-7.642C191.497,226.073,189.419,226.073,186.721,226.073z M155.589,277.317
		c0.084-0.755,0.168-1.51,0.252-2.265c-2.884-0.627-5.767-1.255-9.276-2.018c0.336,2.795,0.6,4.983,0.93,7.734
		C150.65,279.424,153.12,278.371,155.589,277.317z M226.529,303.848c-4.308-3.786-6.245,0.148-8.49,1.994
		c-1.017,0.834-0.933,3.009-1.348,4.576c0.409,0.152,0.817,0.307,1.226,0.459C220.8,308.524,223.683,306.172,226.529,303.848z
		 M195.886,220.135c-3.86,0-7.554,0-11.248,0c0.984,1.877,2.46,3.364,4.115,3.6C191.551,224.132,194.844,224.51,195.886,220.135z
		 M195.547,318.779c-0.735-4.548-3.899-4.225-6.568-3.786c-1.723,0.284-3.254,1.739-4.871,2.669
		c0.222,0.372,0.444,0.744,0.667,1.117C188.246,318.779,191.717,318.779,195.547,318.779z M158.365,236.936
		c1.242-3.02,7.341-3.595,3.875-9.038c-2.844,2.435-5.568,4.767-8.577,7.343C155.499,235.902,156.809,236.375,158.365,236.936z
		 M212.46,313.942c-2.648-4.546-5.884-1.751-8.673-0.868c-1.12,0.355-1.67,2.506-2.48,3.839c0.33,0.313,0.66,0.626,0.99,0.939
		C205.729,316.532,209.16,315.212,212.46,313.942z M240.223,272.017c-5.838,2.057-6.882,7.683-2.45,11.866
		C238.572,280.01,239.311,276.432,240.223,272.017z M240.092,266.367c-0.797-3.879-1.536-7.472-2.383-11.594
		C233.361,259.453,234.597,265.008,240.092,266.367z M162.029,310.681c3.362-3.326,0.521-5.014-1.532-6.379
		c-1.634-1.087-3.833-1.323-5.782-1.937c-0.213,0.523-0.427,1.049-0.641,1.573C156.783,306.234,159.491,308.529,162.029,310.681z
		 M227.004,235.221c-3.367-2.586-6.44-4.947-9.513-7.309c-0.52,0.494-1.04,0.988-1.56,1.482c1.985,2.562,3.971,5.126,5.89,7.603
		C223.746,236.338,225.074,235.883,227.004,235.221z M149.764,298.792c3.575-2.358,2.025-4.813,0.498-6.858
		c-1.111-1.488-2.914-2.459-4.409-3.66c-0.427,0.432-0.855,0.862-1.283,1.293C146.294,292.629,148.019,295.691,149.764,298.792z
		 M140.557,266.224c6.33,0.305,3.291-5.017,4.972-7.382c0.236-0.332-1.641-2.166-3.257-4.215
		C141.55,259.506,141.057,262.84,140.557,266.224z M167.969,224.648c2.289,3.993,4.985,2.741,7.322,1.321
		c1.548-0.94,2.64-2.632,3.936-3.987c-0.346-0.351-0.691-0.701-1.036-1.052C174.925,222.119,171.659,223.307,167.969,224.648z
		 M235.817,249.339c-1.88-3.237-3.634-6.258-5.388-9.278c-0.498,0.055-0.996,0.111-1.494,0.166c0,1.639-0.573,3.597,0.125,4.844
		C230.332,247.345,230.874,251.275,235.817,249.339z M144.521,249.236c5.468,1.935,5.637-2.469,7.024-4.764
		c0.582-0.961-0.452-2.898-1.02-5.729C148.028,243.107,146.354,246.033,144.521,249.236z M167.671,314.079
		c3.744,1.343,7.159,2.567,10.893,3.907C177.074,311.899,172.233,310.102,167.671,314.079z M142.047,282.73
		c0.513,0.174,1.025,0.348,1.538,0.521c0.655-1.371,2.189-3.118,1.794-4.041c-1.027-2.403,0.802-6.976-4.845-6.657
		C141.043,275.973,141.545,279.352,142.047,282.73z M229.125,298.633c0.479,0.034,0.959,0.068,1.439,0.102
		c1.701-3.079,3.402-6.159,5.136-9.297c-4.845-1.943-5.312,2.192-6.698,4.334C228.275,294.896,229.036,296.982,229.125,298.633z
		 M212.535,224.85c-3.67-1.344-6.989-2.559-10.307-3.773c-0.151,1.996,0.35,4.129,1.468,4.526
		C206.423,226.572,209.55,229.168,212.535,224.85z"/>
	<path fill-rule="evenodd" clip-rule="evenodd" fill="#F44E21" d="M881.592,277.604c-2.946,1.053-5.55,1.982-8.117,2.898
		c2.277,4.729,1.803,8.082-1.835,9.863c-3.087,1.511-5.537,0.148-7.238-2.457c-1.961-3.006-0.507-6.219,4.101-9.265
		c-1.62-2.175-3.234-4.343-4.991-6.701c-3.14,3.052-6.512,4.77-10.164,0.979c-2.74-2.845-1.559-5.775,0.894-7.757
		c3.516-2.841,6.714-1.513,9.149,2.089c1.756-2.432,3.439-4.766,5.124-7.1c-4.79-3.285-6.19-6.359-4.044-9.351
		c1.775-2.476,4.047-4.048,7.214-2.317c3.613,1.976,4.062,5.013,1.573,9.801c2.721,0.951,5.452,1.907,8.146,2.85
		c1.017-5.46,3.378-7.991,7.069-7.197c3.41,0.734,5.042,3.173,4.835,6.447c-0.23,3.652-4.289,5.677-8.86,4.857
		c0,2.691,0,5.406,0,8.471c4.289-1.07,8.307-0.115,8.895,4.947c0.375,3.233-1.858,6.131-5.642,6.145
		C882.97,284.822,881.707,281.462,881.592,277.604z M887.596,284.54c1.936-2.536,4.092-4.196,3.837-5.304
		c-0.378-1.646-2.46-2.9-3.817-4.322c-1.266,1.429-3.254,2.721-3.559,4.332C883.833,280.428,885.817,282.026,887.596,284.54z
		 M893.311,259.586c-2.751-1.697-4.402-3.494-5.998-3.445c-1.202,0.036-3.266,2.458-3.234,3.777c0.031,1.32,2.266,3.699,3.394,3.619
		C889.117,263.422,890.637,261.522,893.311,259.586z M868.559,290.897c2.131-2.745,4.17-4.24,4.013-5.448
		c-0.209-1.602-2.135-2.98-3.323-4.453c-1.275,1.285-3.27,2.408-3.605,3.904C865.357,286.17,866.988,287.869,868.559,290.897z
		 M870.038,249.334c-0.695-0.005-1.39-0.01-2.085-0.014c-0.801,1.464-2.386,3.04-2.195,4.361c0.214,1.49,2.024,2.752,3.141,4.112
		c1.31-1.208,3.562-2.331,3.68-3.645C872.714,252.632,870.968,250.946,870.038,249.334z M857.793,264.096
		c-1.865,2.521-3.959,4.203-3.677,5.243c0.399,1.476,2.466,3.261,3.976,3.419c1.09,0.113,3.299-2.131,3.416-3.463
		C861.62,268.022,859.671,266.569,857.793,264.096z M880.972,266.105c0.079,5.602-1.25,9.281-6.136,9.603
		c-1.84,0.12-4.308-0.985-5.547-2.374c-1.307-1.465-1.489-3.934-2.54-7.1c-1.251,4.49-0.319,7.281,2.426,9.468
		c3.37,2.686,6.914,2.759,10.284-0.016C882.186,273.439,883.246,270.713,880.972,266.105z"/>
	<path fill-rule="evenodd" clip-rule="evenodd" fill="#F44E21" d="M200.374,273.735c4.114-0.73,7.774-0.57,8.402,4.577
		c0.424,3.475-1.165,5.846-4.626,6.512c-3.561,0.686-6.033-2.184-6.644-7.312c-2.717,0.99-5.452,1.987-8.294,3.023
		c2.087,3.575,2.955,7.691-1.852,9.686c-1.799,0.746-5.889-0.643-7.025-2.338c-3.001-4.479,0.387-7.166,4.282-9.024
		c-1.84-2.521-3.547-4.86-5.233-7.171c-3.295,3.755-6.848,4.427-9.673,1.659c-2.581-2.528-2.802-5.196-0.161-7.824
		c3.019-3.003,6.429-2.358,9.74,1.659c1.714-2.328,3.453-4.689,5.272-7.162c-3.164-2.053-7.196-3.99-4.293-9.012
		c1.574-2.724,3.983-4.101,7.13-2.654c3.8,1.746,4.311,4.922,1.904,9.955c2.606,0.912,5.232,1.832,7.46,2.612
		c1.268-2.058,2.296-4.384,3.945-6.121c0.796-0.839,2.892-1.055,4.169-0.708c3.507,0.951,4.388,3.791,3.9,7.059
		c-0.51,3.42-3.907,4.942-8.403,3.985C200.374,267.787,200.374,270.457,200.374,273.735z M190.455,285.062
		c-2.462-1.955-4.105-4.145-5.157-3.891c-1.664,0.402-2.933,2.441-4.37,3.788c1.408,1.296,2.666,3.312,4.275,3.647
		C186.353,288.847,187.973,286.835,190.455,285.062z M190.575,253.398c-2.862-1.646-4.589-3.436-6.099-3.268
		c-1.322,0.146-2.4,2.492-3.586,3.866c1.51,1.276,2.888,3.261,4.578,3.576C186.555,257.775,188.099,255.525,190.575,253.398z
		 M204.524,255.259c-0.653,0.007-1.306,0.015-1.958,0.021c-0.92,1.463-2.81,3.162-2.525,4.332c0.39,1.6,2.432,2.797,3.766,4.167
		c1.105-1.392,2.924-2.7,3.1-4.2C207.062,258.25,205.39,256.707,204.524,255.259z M203.477,273.073
		c-1.784,2.87-3.646,4.548-3.392,5.797c0.305,1.503,2.408,2.641,3.732,3.937c1.098-1.152,3.152-2.375,3.074-3.442
		C206.768,277.672,205.219,276.083,203.477,273.073z M173.251,274.95c2.126-2.718,4.044-4.123,4.128-5.63
		c0.06-1.08-2.331-3.197-3.633-3.2c-1.3-0.004-3.379,1.88-3.675,3.248C169.814,270.557,171.572,272.18,173.251,274.95z
		 M183.192,267.236c-2.165,3.289-0.823,5.851,1.56,8.107c2.828,2.682,6.014,3.103,9.423,1.139c3.545-2.041,4.295-5.138,3.348-9.316
		c-1.465,6.641-3.684,9.072-7.908,8.678C184.363,275.354,183.614,271.483,183.192,267.236z"/>
</g>
</svg>
